<svg version="1.1" xmlns="http://www.w3.org/2000/svg" xmlns:xlink="http://www.w3.org/1999/xlink" width="104.65" height="87.84" viewBox="0,0,104.65,87.84"><g transform="translate(-187.68,-134.58)"><g data-paper-data="{&quot;isPaintingLayer&quot;:true}" fill-rule="nonzero" stroke-linecap="butt" stroke-linejoin="miter" stroke-miterlimit="10" stroke-dasharray="" stroke-dashoffset="0" style="mix-blend-mode: normal"><path d="M201.33,165.24v-16.66c0,-6.08 4.92,-11 11,-11h66c6.08,0 11,4.92 11,11v38.24" fill="none" stroke="#ffffff" stroke-width="6"/><path d="M198.47,201.69c0,1.08 0.18,2.13 0.49,3.12l-2.96,0.31c-4.13,0.44 -7.83,-2.5 -8.28,-6.57c-0.04,-0.4 -0.05,-0.79 -0.03,-1.17c0.17,-3.57 2.96,-6.59 6.69,-6.98l4.09,-0.43v3.14z" fill="#ffffff" stroke="none" stroke-width="1"/><path d="M210.21,212.7h14.02l0.17,1.53c0.45,4.06 -2.53,7.71 -6.66,8.15c-0.4,0.04 -0.79,0.05 -1.17,0.03c-3.63,-0.17 -6.71,-2.93 -7.11,-6.61l-0.35,-3.17c0.37,0.03 0.73,0.06 1.1,0.07z" fill="#ffffff" stroke="none" stroke-width="1"/><path d="M292.32,177.2v24.5c0,6.08 -5.24,11 -11.72,11h-52.19h-4.17l-0.84,-7.61l-0.31,-2.82l12.13,-1.28c3.74,-0.4 6.53,-3.41 6.7,-7c0.01,-0.38 0,-0.76 -0.04,-1.15c-0.45,-4.07 -4.15,-7.01 -8.28,-6.58l-12.14,1.28l-1.32,-11.96c-0.21,-1.95 -1.16,-3.63 -2.56,-4.8c-1,-0.87 -2.23,-1.46 -3.57,-1.7c-0.32,-0.06 -0.64,-0.09 -0.97,-0.11c-0.39,-0.02 -0.78,-0.01 -1.18,0.03c-4.13,0.44 -7.11,4.08 -6.66,8.15l1.32,11.97l-4.21,0.44l-3.83,0.41v-31.28l14.69,6.03h0.01l4.98,2.05l0.02,0.01l14.42,5.91l26.5,-23z" fill="#ffffff" stroke="none" stroke-width="1"/><path d="M208.18,204.13l0.94,8.5c-0.56,-0.05 -1.11,-0.12 -1.64,-0.24c-0.07,-0.01 -0.14,-0.03 -0.21,-0.05c-0.23,-0.05 -0.46,-0.12 -0.69,-0.18c-0.02,-0.01 -0.04,-0.02 -0.06,-0.02c-3.63,-1.13 -6.47,-3.88 -7.56,-7.33l8.53,-0.9z" fill="#ffffff" stroke="none" stroke-width="1"/></g></g></svg>