<svg version="1.1" xmlns="http://www.w3.org/2000/svg" xmlns:xlink="http://www.w3.org/1999/xlink" width="100.82555" height="85.4134" viewBox="0,0,100.82555,85.4134"><g transform="translate(-191.74,-135.14053)"><g data-paper-data="{&quot;isPaintingLayer&quot;:true}" fill-rule="nonzero" stroke-miterlimit="10" stroke-dasharray="" stroke-dashoffset="0" style="mix-blend-mode: normal"><g><path d="M258.32,156.80608c6.06,0 10.97,8.92 10.97,19.92c0,11 -4.91,19.92 -10.97,19.92" fill="none" stroke="#000000" stroke-width="8.6111" stroke-linecap="round" stroke-linejoin="round"/><path d="M261.32,139.44608c14.88,0 26.94,15.88 26.94,35.47c0,19.59 -12.06,35.47 -26.94,35.47" fill="none" stroke="#000000" stroke-width="8.6111" stroke-linecap="round" stroke-linejoin="round"/><path d="M214.74,191.61608l12.49,9.47l0.18,1.78l0.95,9.29c0.42,4.14 -2.59,7.87 -6.72,8.35c-0.4,0.04 -0.79,0.06 -1.17,0.04c-3.64,-0.15 -6.69,-2.93 -7.07,-6.67l-1.21,-11.86l-0.69,-0.22l-11.49,1.32c-4.13,0.47 -7.81,-2.49 -8.23,-6.63c-0.04,-0.41 -0.05,-0.8 -0.03,-1.19c0.2,-3.64 3.01,-6.73 6.74,-7.16l6.98,-0.81c1.49,1.41 3.48,2.4 5.72,2.73c1.32,0.2 2.54,0.77 3.55,1.56z" fill="#050304" stroke="none" stroke-width="1" stroke-linecap="butt" stroke-linejoin="miter"/><path d="M249.66,150.36608v50.92c0,2.3 -0.96,4.4 -2.54,6c-2.8,2.84 -7.72,3.03 -10.95,0.58l-8.94,-6.78l-0.11,-1.09l12.14,-1.4c3.74,-0.43 6.56,-3.52 6.75,-7.17c0.02,-0.38 0.01,-0.78 -0.03,-1.17c-0.42,-4.14 -4.11,-7.1 -8.24,-6.63l-12.15,1.4l-1.24,-12.16c-0.2,-1.97 -1.14,-3.68 -2.53,-4.86c-0.99,-0.87 -2.22,-1.46 -3.56,-1.7c-0.31,-0.05 -0.63,-0.09 -0.96,-0.1c-0.39,-0.02 -0.78,0 -1.18,0.04c-4.13,0.47 -7.14,4.2 -6.72,8.34l1.24,12.16l-4.21,0.48l-0.95,0.11c-1.73,-1.63 -2.79,-3.82 -2.79,-6.23v-10.59c0,-4.5 3.68,-8.24 8.51,-8.95c1.32,-0.2 2.53,-0.77 3.55,-1.54l21.43,-16.25c3.23,-2.45 8.14,-2.26 10.95,0.58c1.58,1.6 2.54,3.7 2.53,6.01z" fill="#050304" stroke="none" stroke-width="1" stroke-linecap="butt" stroke-linejoin="miter"/></g></g></g></svg>