<svg version="1.1" xmlns="http://www.w3.org/2000/svg" xmlns:xlink="http://www.w3.org/1999/xlink" width="93.45493" height="91.67058" viewBox="0,0,93.45493,91.67058"><g transform="translate(-193.27254,-134.16471)"><g data-paper-data="{&quot;isPaintingLayer&quot;:true}" fill-rule="nonzero" stroke="none" stroke-linecap="butt" stroke-linejoin="miter" stroke-miterlimit="10" stroke-dasharray="" stroke-dashoffset="0" style="mix-blend-mode: normal"><path d="M193.27254,225.83529v-91.67058h93.45493v91.67058z" fill="none" stroke-width="0"/><path d="M262.1262,206.82423h-44.2524c-6.0256,0 -10.91156,-4.88595 -10.91156,-10.91156c0,-6.0256 4.88595,-10.91156 10.91156,-10.91156h44.2524c6.0256,0 10.91156,4.88595 10.91156,10.91156c0,6.0256 -4.88595,10.91156 -10.91156,10.91156z" fill="#ffffff" stroke-width="1"/><path d="M262.1262,174.99888h-44.2524c-6.0256,0 -10.91156,-4.88595 -10.91156,-10.91156c0,-6.0256 4.88595,-10.91156 10.91156,-10.91156h44.2524c6.0256,0 10.91156,4.88595 10.91156,10.91156c0,6.0256 -4.88595,10.91156 -10.91156,10.91156z" fill="#ffffff" stroke-width="1"/></g></g></svg>