<svg version="1.1" xmlns="http://www.w3.org/2000/svg" xmlns:xlink="http://www.w3.org/1999/xlink" width="94.47908" height="92.20218" viewBox="0,0,94.47908,92.20218"><g transform="translate(-192.76046,-133.89891)"><g data-paper-data="{&quot;isPaintingLayer&quot;:true}" fill="#ffffff" fill-rule="nonzero" stroke-linecap="butt" stroke-linejoin="miter" stroke-miterlimit="10" stroke-dasharray="" stroke-dashoffset="0" style="mix-blend-mode: normal"><path d="M274.25461,178.42306c0,20.43 -16.57,37 -37,37c-20.43,0 -37,-16.57 -37,-37c0,-20.43 16.57,-37 37,-37c20.43,0 37,16.57 37,37zM264.50461,178.42306c0,-4.97 -4.03,-9 -9,-9h-36.5c-4.97,0 -9,4.03 -9,9c0,4.97 4.03,9 9,9h36.5c4.97,0 9,-4.03 9,-9z" stroke="none" stroke-width="1"/><path d="M272.66461,224.16306l-21.98,-17.35c-3.9,-3.08 -4.57,-8.74 -1.49,-12.64v0c3.08,-3.9 8.74,-4.57 12.64,-1.49l21.98,17.35c3.9,3.08 4.57,8.74 1.49,12.64v0c-3.08,3.91 -8.74,4.57 -12.64,1.49z" stroke="none" stroke-width="1"/><path d="M253.12461,206.55306c-2.22,1.25 -4.61,2.25 -7.11,2.95c-0.08,2.13 -0.13,4.07 -0.13,5.32c0,1.56 0.21,3.39 0.39,4.75c0.15,1.13 -0.5,1.97 -1.67,2.05c-2.13,0.13 -5.55,0.32 -7.48,0.32c-1.93,0 -5.04,-0.17 -7.09,-0.3c-1.22,-0.08 -1.95,-0.89 -1.8,-1.97c0.19,-1.4 0.41,-3.35 0.41,-4.91c0,-1.25 -0.05,-3.16 -0.13,-5.26c-2.51,-0.7 -4.89,-1.7 -7.11,-2.95c-1.52,1.42 -2.9,2.72 -3.78,3.59c-1.11,1.1 -2.26,2.55 -3.09,3.63c-0.69,0.91 -1.75,1.05 -2.63,0.27c-1.59,-1.4 -4.15,-3.7 -5.51,-5.06c-1.36,-1.36 -3.43,-3.68 -4.8,-5.23c-0.81,-0.92 -0.75,-2.01 0.12,-2.66c1.13,-0.86 2.66,-2.08 3.77,-3.18c0.86,-0.86 2.15,-2.23 3.55,-3.74c-1.25,-2.22 -2.25,-4.6 -2.95,-7.11c-2.08,-0.07 -3.97,-0.13 -5.21,-0.13c-1.55,0 -3.39,0.21 -4.74,0.39c-1.13,0.15 -1.98,-0.5 -2.05,-1.67c-0.13,-2.13 -0.32,-5.55 -0.32,-7.48c0,-1.93 0.17,-5.04 0.31,-7.09c0.07,-1.22 0.89,-1.95 1.96,-1.8c1.4,0.19 3.35,0.41 4.91,0.41c1.22,0 3.09,-0.05 5.15,-0.13c0.7,-2.51 1.7,-4.89 2.95,-7.11c-1.4,-1.51 -2.69,-2.87 -3.55,-3.74c-1.1,-1.1 -2.64,-2.32 -3.77,-3.18c-0.86,-0.66 -0.93,-1.74 -0.12,-2.66c1.36,-1.54 3.43,-3.86 4.8,-5.23c1.43,-1.42 3.92,-3.66 5.51,-5.06c0.88,-0.78 1.94,-0.64 2.63,0.27c0.83,1.09 1.98,2.53 3.09,3.63c0.87,0.87 2.25,2.17 3.78,3.59c2.22,-1.26 4.61,-2.25 7.11,-2.95c0.08,-2.01 0.13,-3.84 0.13,-5.04c0,-1.56 -0.22,-3.51 -0.41,-4.91c-0.15,-1.07 0.58,-1.88 1.8,-1.96c2.05,-0.13 5.08,-0.31 7.09,-0.31c2.01,0 5.35,0.19 7.48,0.32c1.17,0.07 1.83,0.92 1.67,2.05c-0.18,1.35 -0.39,3.18 -0.39,4.74c0,1.21 0.05,3.06 0.13,5.1c2.51,0.7 4.9,1.7 7.12,2.95c1.51,-1.41 2.86,-2.69 3.73,-3.55c1.1,-1.1 2.32,-2.64 3.18,-3.77c0.66,-0.86 1.74,-0.93 2.66,-0.12c1.54,1.36 3.86,3.43 5.23,4.8c1.43,1.43 3.66,3.92 5.06,5.51c0.78,0.88 0.64,1.94 -0.27,2.63c-1.09,0.83 -2.53,1.98 -3.63,3.09c-0.87,0.87 -2.17,2.25 -3.59,3.78c1.25,2.22 2.25,4.61 2.95,7.11c2.05,0.07 3.93,0.13 5.15,0.13c1.56,0 3.51,-0.22 4.91,-0.41c1.08,-0.15 1.89,0.58 1.97,1.8v0.01c0.13,2.05 0.3,5.08 0.3,7.09c0,2.01 -0.18,5.35 -0.32,7.48c-0.07,1.17 -0.92,1.83 -2.05,1.67c-1.36,-0.18 -3.19,-0.39 -4.75,-0.39c-1.24,0 -3.13,0.05 -5.21,0.13c-0.71,2.51 -1.7,4.89 -2.95,7.11M272.98461,203.68306M222.69461,156.43306c-6.41,0 -8.12,11.76 -13.14,15.9c-9.93,8.16 21.39,42.42 26.95,42.76c6.49,0.4 32.86,-32.59 32.86,-38.99c0,-6.16 -25.76,-30.17 -32.17,-30.17z" stroke="#ffffff" stroke-width="2.0083"/></g></g></svg>